<svg focusable="false" viewBox="0 0 1393.1 1500"><path d="M107.2 1392.9h241.1v-241.1H107.2v241.1zm294.7 0h267.9v-241.1H401.9v241.1zm-294.7-294.7h241.1V830.4H107.2v267.8zm294.7 0h267.9V830.4H401.9v267.8zM107.2 776.8h241.1V535.7H107.2v241.1zm616.2 616.1h267.9v-241.1H723.4v241.1zM401.9 776.8h267.9V535.7H401.9v241.1zm642.9 616.1H1286v-241.1h-241.1v241.1zm-321.4-294.7h267.9V830.4H723.4v267.8zM428.7 375V133.9c0-7.3-2.7-13.5-8-18.8-5.3-5.3-11.6-8-18.8-8h-53.6c-7.3 0-13.5 2.7-18.8 8-5.3 5.3-8 11.6-8 18.8V375c0 7.3 2.7 13.5 8 18.8 5.3 5.3 11.6 8 18.8 8h53.6c7.3 0 13.5-2.7 18.8-8 5.3-5.3 8-11.5 8-18.8zm616.1 723.2H1286V830.4h-241.1v267.8zM723.4 776.8h267.9V535.7H723.4v241.1zm321.4 0H1286V535.7h-241.1v241.1zm26.8-401.8V133.9c0-7.3-2.7-13.5-8-18.8-5.3-5.3-11.6-8-18.8-8h-53.6c-7.3 0-13.5 2.7-18.8 8-5.3 5.3-8 11.6-8 18.8V375c0 7.3 2.7 13.5 8 18.8 5.3 5.3 11.6 8 18.8 8h53.6c7.3 0 13.5-2.7 18.8-8 5.4-5.3 8-11.5 8-18.8zm321.5-53.6v1071.4c0 29-10.6 54.1-31.8 75.3-21.2 21.2-46.3 31.8-75.3 31.8H107.2c-29 0-54.1-10.6-75.3-31.8C10.6 1447 0 1421.9 0 1392.9V321.4c0-29 10.6-54.1 31.8-75.3s46.3-31.8 75.3-31.8h107.2v-80.4c0-36.8 13.1-68.4 39.3-94.6S311.4 0 348.3 0h53.6c36.8 0 68.4 13.1 94.6 39.3 26.2 26.2 39.3 57.8 39.3 94.6v80.4h321.5v-80.4c0-36.8 13.1-68.4 39.3-94.6C922.9 13.1 954.4 0 991.3 0h53.6c36.8 0 68.4 13.1 94.6 39.3s39.3 57.8 39.3 94.6v80.4H1286c29 0 54.1 10.6 75.3 31.8 21.2 21.2 31.8 46.3 31.8 75.3z"/></svg>
