<svg focusable="false" viewBox="0 0 1393.1 1500"><path d="M107 1393h241v-241H107v241zm295 0h268v-241H402v241zm-295-295h241V830H107v268zm295 0h268V830H402v268zM107 777h241V536H107v241zm616 616h268v-241H723v241zM402 777h268V536H402v241zm643 616h241v-241h-241v241zm-322-295h268V830H723v268zM429 375V134c0-7-3-14-8-19-6-5-12-8-19-8h-54c-7 0-13 3-19 8-5 5-8 12-8 19v241c0 7 3 14 8 19 6 5 12 8 19 8h54c7 0 13-3 19-8 5-5 8-12 8-19zm616 723h241V830h-241v268zM723 777h268V536H723v241zm322 0h241V536h-241v241zm27-402V134c0-7-3-14-8-19-6-5-12-8-19-8h-54c-7 0-13 3-19 8-5 5-8 12-8 19v241c0 7 3 14 8 19 6 5 12 8 19 8h54c7 0 13-3 19-8 5-5 8-12 8-19zm321-54v1072c0 29-11 54-32 75s-46 32-75 32H107c-29 0-54-11-75-32s-32-46-32-75V321c0-29 11-54 32-75s46-32 75-32h107v-80c0-37 13-68 40-95s57-39 94-39h54c37 0 68 13 95 39 26 26 39 58 39 95v80h321v-80c0-37 13-69 40-95 26-26 57-39 94-39h54c37 0 68 13 94 39s40 58 40 95v80h107c29 0 54 11 75 32s32 46 32 75z"/></svg>
